<svg width="13" height="9" viewBox="0 0 13 9" fill="none" xmlns="http://www.w3.org/2000/svg">
<path d="M6.46099 1.49969C8.5016 1.49969 10.3215 2.64652 11.2098 4.46099C10.3215 6.27546 8.50698 7.42229 6.46099 7.42229C4.415 7.42229 2.60053 6.27546 1.71214 4.46099C2.60053 2.64652 4.42039 1.49969 6.46099 1.49969ZM6.46099 0.422852C3.86905 0.422852 1.64145 1.97507 0.647969 4.20012C0.573849 4.36612 0.573849 4.55586 0.647969 4.72186C1.64145 6.94691 3.86905 8.49913 6.46099 8.49913C9.05294 8.49913 11.2805 6.94691 12.274 4.72186C12.3481 4.55586 12.3481 4.36612 12.274 4.20012C11.2805 1.97507 9.05294 0.422852 6.46099 0.422852ZM6.46099 3.11494C7.20401 3.11494 7.80704 3.71797 7.80704 4.46099C7.80704 5.20401 7.20401 5.80704 6.46099 5.80704C5.71798 5.80704 5.11495 5.20401 5.11495 4.46099C5.11495 3.71797 5.71798 3.11494 6.46099 3.11494ZM6.46099 2.03811C5.12572 2.03811 4.03811 3.12571 4.03811 4.46099C4.03811 5.79627 5.12572 6.88387 6.46099 6.88387C7.79627 6.88387 8.88388 5.79627 8.88388 4.46099C8.88388 3.12571 7.79627 2.03811 6.46099 2.03811Z" fill="#86C9F6"/>
</svg>
